<mxfile host="app.diagrams.net" modified="2023-09-02T09:32:19.352Z" agent="Mozilla/5.0 (Windows NT 10.0; Win64; x64) AppleWebKit/537.36 (KHTML, like Gecko) Chrome/114.0.0.0 Safari/537.36" version="21.7.2" etag="MtA93A45xAikFIllC2Wo" type="github">
  <diagram name="Page-1" id="o4VT2QGlbtUiyUgqG6mY">
    <mxGraphModel>
      <root>
        <mxCell id="0" />
        <mxCell id="1" parent="0" />
      </root>
    </mxGraphModel>
  </diagram>
</mxfile>
